<?xml version="1.0" encoding="UTF-8"?>
<svg xmlns="http://www.w3.org/2000/svg" width="256" height="256" viewBox="0 0 256 256" role="img" aria-label="Television over calendar">
  <defs>
    <linearGradient id="bg" x1="0" y1="0" x2="0" y2="1">
      <stop offset="0" stop-color="#f4f6fb"/>
      <stop offset="1" stop-color="#dfe6f2"/>
    </linearGradient>
    <linearGradient id="tv" x1="0" y1="0" x2="0" y2="1">
      <stop offset="0" stop-color="#2f3c55"/>
      <stop offset="1" stop-color="#1e2738"/>
    </linearGradient>
    <linearGradient id="screen" x1="0" y1="0" x2="1" y2="1">
      <stop offset="0" stop-color="#5da5ff"/>
      <stop offset="1" stop-color="#2f6ec8"/>
    </linearGradient>
  </defs>

  <rect x="20" y="18" width="216" height="220" rx="24" fill="url(#bg)"/>

  <rect x="40" y="44" width="176" height="128" rx="14" fill="#ffffff" stroke="#c7d0df" stroke-width="4"/>
  <rect x="40" y="44" width="176" height="28" rx="14" fill="#e84c3d"/>
  <circle cx="66" cy="58" r="6" fill="#ffd166"/>
  <circle cx="84" cy="58" r="6" fill="#7bd389"/>
  <circle cx="102" cy="58" r="6" fill="#6ca0ff"/>

  <line x1="84" y1="84" x2="84" y2="164" stroke="#d7deeb" stroke-width="3"/>
  <line x1="128" y1="84" x2="128" y2="164" stroke="#d7deeb" stroke-width="3"/>
  <line x1="172" y1="84" x2="172" y2="164" stroke="#d7deeb" stroke-width="3"/>
  <line x1="48" y1="104" x2="208" y2="104" stroke="#d7deeb" stroke-width="3"/>
  <line x1="48" y1="128" x2="208" y2="128" stroke="#d7deeb" stroke-width="3"/>
  <line x1="48" y1="152" x2="208" y2="152" stroke="#d7deeb" stroke-width="3"/>

  <g transform="translate(68,92)">
    <rect x="0" y="0" width="120" height="94" rx="16" fill="url(#tv)"/>
    <rect x="10" y="10" width="100" height="58" rx="8" fill="url(#screen)"/>
    <rect x="49" y="74" width="22" height="10" rx="3" fill="#b9c3d6"/>
    <rect x="39" y="84" width="42" height="6" rx="3" fill="#98a6bf"/>
    <line x1="18" y1="0" x2="4" y2="-14" stroke="#2f3c55" stroke-width="4" stroke-linecap="round"/>
    <line x1="102" y1="0" x2="116" y2="-14" stroke="#2f3c55" stroke-width="4" stroke-linecap="round"/>
  </g>
</svg>
